<?xml version="1.0" standalone="no"?>
<!DOCTYPE svg PUBLIC "-//W3C//DTD SVG 20010904//EN"
 "http://www.w3.org/TR/2001/REC-SVG-20010904/DTD/svg10.dtd">
<svg version="1.0" xmlns="http://www.w3.org/2000/svg"
 width="2048.000000pt" height="1152.000000pt" viewBox="0 0 2048.000000 1152.000000"
 preserveAspectRatio="xMidYMid meet">

<g transform="translate(0.000000,1152.000000) scale(0.100000,-0.100000)"
fill="#000000" stroke="none">
<path d="M11455 8009 c-201 -26 -377 -109 -506 -241 -110 -112 -185 -251 -226
-418 -16 -66 -18 -122 -18 -480 l1 -405 27 -99 c15 -55 49 -140 75 -190 38
-74 64 -109 146 -191 l99 -100 -82 -405 c-45 -223 -122 -600 -170 -838 l-88
-432 305 2 305 3 153 755 c85 415 154 758 154 763 0 4 61 7 135 7 l135 0 0
-765 0 -765 300 0 300 0 0 1905 0 1905 -487 -1 c-269 -1 -519 -6 -558 -10z
m445 -1130 l0 -541 -212 4 c-211 3 -213 3 -263 31 -105 58 -125 120 -132 427
-11 445 25 560 188 604 37 10 110 15 237 15 l182 1 0 -541z"/>
<path d="M5100 6035 l0 -1905 790 0 790 0 -2 298 -3 297 -487 3 -488 2 -2
1603 -3 1602 -297 3 -298 2 0 -1905z"/>
<path d="M6527 7933 c-4 -3 -7 -138 -7 -300 l0 -293 305 0 305 0 0 -1605 0
-1605 300 0 300 0 0 1605 0 1605 305 0 305 0 0 300 0 300 -903 0 c-497 0 -907
-3 -910 -7z"/>
<path d="M8610 6035 l0 -1905 790 0 790 0 -2 298 -3 297 -487 3 -488 2 0 525
0 525 335 0 335 0 0 300 0 300 -335 0 -335 0 0 480 0 480 490 0 490 0 -2 298
-3 297 -787 3 -788 2 0 -1905z"/>
<path d="M13060 6438 c0 -1612 0 -1599 51 -1763 70 -227 229 -413 433 -505
132 -60 213 -74 416 -75 163 0 195 3 270 23 252 69 426 211 535 435 54 113 82
219 95 368 6 70 10 672 10 1567 l0 1452 -300 0 -300 0 -2 -1517 c-3 -1483 -3
-1519 -23 -1573 -43 -120 -131 -165 -309 -158 -85 3 -111 8 -152 29 -51 26
-85 67 -106 128 -10 28 -13 375 -16 1564 l-2 1527 -300 0 -300 0 0 -1502z"/>
<path d="M15280 6035 l0 -1905 300 0 300 0 2 937 3 938 236 -635 237 -635 175
-3 175 -2 24 62 c13 35 120 323 238 640 l215 577 3 -940 2 -939 300 0 300 0 0
1905 0 1905 -172 -2 -171 -3 -448 -1035 c-247 -569 -452 -1043 -457 -1054 -6
-14 -118 235 -464 1035 l-456 1054 -171 3 -171 2 0 -1905z"/>
<path d="M2674 7913 c3 -10 175 -867 382 -1905 l377 -1888 298 0 299 0 5 23
c9 39 755 3771 755 3779 0 5 -137 8 -304 8 l-304 0 -11 -62 c-6 -35 -30 -170
-53 -300 l-43 -238 -342 0 c-317 0 -342 1 -347 18 -3 9 -23 121 -46 247 -22
127 -45 254 -51 283 l-10 52 -305 0 c-286 0 -305 -1 -300 -17z m1293 -1210
c-3 -16 -56 -319 -119 -676 -65 -370 -116 -640 -120 -630 -4 10 -57 306 -118
658 -61 352 -114 648 -116 658 -5 16 11 17 236 17 l242 0 -5 -27z"/>
</g>
</svg>
